<svg id="Capa_1" enable-background="new 0 0 512.909 512.909" height="512" viewBox="0 0 512.909 512.909" width="512" xmlns="http://www.w3.org/2000/svg"><g><g><path d="m313.384 376.694c0 49.93-21.97 94.58-56.47 124.23-6.56 5.63-14.92 8.71-23.55 8.71h-153.34c-8.64 0-17-3.08-23.55-8.71-34.52-29.65-56.47-74.3-56.47-124.23 0-56.54 28.15-106.29 70.78-135.18 14.12-9.58 22.35-25.72 22.18-42.77-.03-3.2-.05-6.47-.07-9.83-.13-27.65.2-60.21.99-89.04.15-5.52.32-10.91.51-16.1.48-13.42 1.08-25.53 1.8-35.27 40.33-6.65 80.66-6.65 120.99 0 .72 9.74 1.32 21.85 1.8 35.27.19 5.19.35 10.58.51 16.1.8 28.84 1.13 61.39.99 89.04-.02 3.35-.05 6.62-.08 9.81-.16 17.07 8.07 33.21 22.2 42.79 42.63 28.88 70.78 78.65 70.78 135.18z" fill="#80b4fb"/><path d="m156.693 43.518c-12.983 0-25.977 1.658-38.971 4.984-.643 13.512-1.13 31.562-1.482 51.374-.508 28.827-.725 61.384-.642 89.04.021 3.357.031 6.632.052 9.823.104 17.056-5.191 33.2-14.289 42.774-27.459 28.889-45.592 78.636-45.592 135.181 0 49.934 14.144 94.583 36.37 124.229 4.217 5.626 9.605 8.714 15.17 8.714h-27.284c-8.642 0-17.004-3.088-23.553-8.714-34.515-29.645-56.472-74.294-56.472-124.228 0-56.545 28.153-106.292 70.782-135.181 14.123-9.574 22.351-25.718 22.185-42.774-.031-3.191-.052-6.466-.072-9.823-.135-27.656.197-60.213.995-89.04.539-19.812 1.306-37.862 2.3-51.374 20.164-3.327 40.338-4.985 60.503-4.985z" fill="#61a2f9"/><path d="m220.481 188.917c-34.961 2.228-69.922 2.622-104.883 1.181-7.575-.311-15.139-.705-22.703-1.181-.135-27.656.197-60.213.995-89.04 7.461-.466 14.921-.85 22.371-1.15 34.412-1.388 68.824-1.005 103.236 1.15.797 28.837 1.129 61.384.984 89.04z" fill="#ededed"/><path d="m116.24 99.877c-.508 28.827-.725 61.384-.642 89.04v1.181c-7.575-.311-15.139-.705-22.703-1.181-.135-27.656.197-60.213.995-89.04 7.461-.466 14.921-.85 22.371-1.15-.011.383-.011.766-.021 1.15z" fill="#dbdbdb"/><path d="m218.984 83.774h-124.59c.48-13.42 1.08-25.53 1.8-35.27 40.33-6.65 80.66-6.65 120.99 0 .72 9.74 1.32 21.85 1.8 35.27z" fill="#61a2f9"/><path d="m202.903.454h-92.424c-14.443 0-26.152 11.709-26.152 26.152v41.964h144.728v-41.964c0-14.443-11.709-26.152-26.152-26.152z" fill="#407093"/><path d="m162.319.469c-14.442 0-26.156 11.696-26.156 26.138v41.97h-51.836v-41.97c0-14.442 11.714-26.138 26.156-26.138h51.836z" fill="#365e7d"/><path d="m266.661 376.601c0 41.022-49.237 74.274-109.971 74.274-43.468 0-81.044-17.028-98.887-41.745-7.1-9.825-11.084-20.857-11.084-32.529 0-11.682 3.994-22.735 11.115-32.57 17.854-24.696 55.419-41.714 98.856-41.714 60.734 0 109.971 33.261 109.971 74.284z" fill="#ededed"/><g fill="#d64553"><path d="m105.689 349.978c-3.859 0-7.198-2.882-7.674-6.81-.514-4.244 2.508-8.101 6.752-8.615 25.219-3.055 50.772-4.162 75.949-3.286 4.272.148 7.615 3.732 7.466 8.004-.148 4.272-3.714 7.619-8.004 7.466-24.375-.846-49.124.224-73.549 3.183-.315.04-.629.058-.94.058z"/><path d="m163.969 422.221c-19.708 0-39.587-1.2-59.2-3.576-4.244-.514-7.266-4.371-6.752-8.615s4.381-7.265 8.615-6.753c21.21 2.57 42.743 3.72 64.003 3.416.037 0 .075-.001.112-.001 4.224 0 7.677 3.393 7.737 7.63.061 4.274-3.354 7.789-7.629 7.85-2.293.032-4.59.049-6.886.049z"/><path d="m173.636 384.334h-90.951c-4.275 0-7.74-3.465-7.74-7.74s3.465-7.74 7.74-7.74h90.951c4.275 0 7.74 3.465 7.74 7.74s-3.465 7.74-7.74 7.74z"/></g><path d="m55.77 376.694c0 11.104.702 21.961 2.033 32.436-7.1-9.825-11.084-20.857-11.084-32.529 0-11.682 3.994-22.735 11.115-32.57-1.352 10.547-2.064 21.476-2.064 32.663z" fill="#dbdbdb"/></g><g><path d="m493.609 168.033c-1.508-18.1-15.698-32.58-33.781-34.278-81.288-7.629-162.584-7.629-243.873 0-18.083 1.698-32.273 16.178-33.781 34.278-7.364 88.354-7.364 176.708 0 265.062 1.508 18.108 15.698 32.58 33.781 34.278 81.288 7.638 162.584 7.638 243.873 0 18.083-1.698 32.273-16.17 33.781-34.278 7.364-88.353 7.364-176.707 0-265.062zm-74.156 43.457c0 15.872-12.865 28.736-28.736 28.736h-105.65c-15.872 0-28.744-12.865-28.744-28.736v-11.034c0-15.872 12.873-28.736 28.744-28.736h105.65c15.872 0 28.736 12.865 28.736 28.736z" fill="#e49542"/><g><g><path d="m332.392 484.01s9.682-81.197.006-129.959c-5.285-26.634-15.393-41.193-23.479-48.921-6.8-6.5-10.123-15.764-9.3-25.135 3.416-38.9-12.326-71.086-12.326-71.086h-47.622s-15.741 32.186-12.326 71.086c.823 9.371-2.5 18.635-9.3 25.135-8.085 7.728-18.193 22.287-23.479 48.921-9.677 48.762.006 129.959.006 129.959" fill="#95d6a4"/><g fill="#78c2a4"><path d="m296.682 237.827h-66.399c3.798-17.482 9.391-28.917 9.391-28.917h47.617s5.593 11.434 9.391 28.917z"/><path d="m445.498 237.827h-66.399c3.798-17.482 9.391-28.917 9.391-28.917h47.617s5.593 11.434 9.391 28.917z"/><path d="m251.94 279.995c.265 9.369-.795 18.63-2.966 25.133-2.584 7.729-5.815 22.292-7.497 48.924-3.09 48.758 0 129.955 0 129.955h-46.902s-9.684-81.197-.008-129.955c5.285-26.632 15.391-41.195 23.476-48.924 6.801-6.503 10.123-15.764 9.303-25.133-3.413-38.9 12.326-71.091 12.326-71.091h16.203s-5.02 32.19-3.935 71.091z"/></g><g><path d="m288.085 194.049h-49.205c-7.689 0-13.923 6.233-13.923 13.923v22.341h77.05v-22.341c0-7.689-6.233-13.923-13.922-13.923z" fill="#ffd064"/><path d="m266.479 194.053c-7.688 0-13.925 6.227-13.925 13.915v22.344h-27.596v-22.344c0-7.688 6.236-13.915 13.925-13.915z" fill="#ffc250"/></g></g><g><path d="m481.205 484.012h-137.814s-9.68-81.199-.01-129.961c5.284-26.636 15.398-41.198 23.478-48.917 6.801-6.502 10.124-15.769 9.309-25.14-1.383-15.707.361-30.331 2.931-42.168 3.798-17.482 9.391-28.917 9.391-28.917h47.617s5.593 11.435 9.391 28.917c2.57 11.837 4.324 26.45 2.941 42.168-.826 9.371 2.497 18.638 9.298 25.14 8.081 7.719 18.194 22.281 23.478 48.917 9.681 48.763-.01 129.961-.01 129.961z" fill="#95d6a4"/><path d="m445.498 237.827h-66.399c3.798-17.482 9.391-28.917 9.391-28.917h47.617s5.593 11.434 9.391 28.917z" fill="#78c2a4"/><path d="m400.757 279.995c.265 9.369-.795 18.63-2.966 25.133-2.584 7.729-5.815 22.292-7.497 48.924-3.09 48.758 0 129.955 0 129.955h-46.902s-9.684-81.197-.008-129.955c5.285-26.632 15.391-41.195 23.476-48.924 6.801-6.503 10.123-15.764 9.303-25.133-3.413-38.9 12.326-71.091 12.326-71.091h16.203s-5.02 32.19-3.935 71.091z" fill="#78c2a4"/><g><path d="m436.902 194.049h-49.205c-7.689 0-13.923 6.233-13.923 13.923v22.341h77.05v-22.341c.001-7.689-6.233-13.923-13.922-13.923z" fill="#ffd064"/><path d="m415.296 194.053c-7.688 0-13.925 6.227-13.925 13.915v22.344h-27.596v-22.344c0-7.688 6.236-13.915 13.925-13.915z" fill="#ffc250"/></g></g></g><g><path d="m489.686 337.417c-93.568-4.814-187.136-5.177-280.704-1.089-7.628.333-16.341 7.31-23.97 7.703-8.375.431-9.394.949-10.876 9.202-8.472 47.181-13.381 93.341-4.908 140.522 1.482 8.254 8.494 14.363 16.869 14.794 101.196 5.207 202.393 5.207 303.589 0 8.375-.431 15.387-6.54 16.869-14.794 8.472-47.181 8.472-94.363 0-141.544-1.483-8.254-8.495-14.363-16.869-14.794z" fill="#ffd064"/><path d="m208.982 509.639c-7.636-.331-15.268-.695-22.901-1.088-8.369-.431-15.373-6.546-16.855-14.794-8.478-47.184-8.478-94.362 0-141.546 1.482-8.248 8.486-14.363 16.855-14.794 7.633-.393 15.266-.756 22.901-1.088-11.888 57.762-11.888 115.541 0 173.31z" fill="#ffc250"/></g></g><g fill="#78c2a4"><path d="m425.764 396.557c-.206 0-.413-.008-.623-.025-57.898-4.613-116.611-4.613-174.507 0-4.276.341-7.99-2.84-8.331-7.101-.34-4.261 2.84-7.991 7.101-8.33 58.713-4.678 118.252-4.679 176.966 0 4.261.34 7.441 4.069 7.101 8.33-.322 4.053-3.711 7.126-7.707 7.126z"/><path d="m337.888 468.373c-29.563 0-59.127-1.169-88.484-3.508-4.261-.34-7.441-4.069-7.101-8.33.34-4.26 4.041-7.442 8.331-7.101 57.896 4.613 116.609 4.613 174.507 0 4.274-.339 7.991 2.84 8.331 7.101s-2.84 7.991-7.101 8.33c-29.357 2.339-58.92 3.508-88.483 3.508z"/><path d="m460.532 430.723h-245.289c-4.275 0-7.74-3.465-7.74-7.74s3.465-7.74 7.74-7.74h245.289c4.275 0 7.74 3.465 7.74 7.74s-3.465 7.74-7.74 7.74z"/></g></g></svg>