<svg height='300px' width='300px'  fill="#FFFFFF" xmlns:dc="http://purl.org/dc/elements/1.1/" xmlns:cc="http://creativecommons.org/ns#" xmlns:rdf="http://www.w3.org/1999/02/22-rdf-syntax-ns#" xmlns:svg="http://www.w3.org/2000/svg" xmlns="http://www.w3.org/2000/svg" xmlns:sodipodi="http://sodipodi.sourceforge.net/DTD/sodipodi-0.dtd" xmlns:inkscape="http://www.inkscape.org/namespaces/inkscape" version="1.1" x="0px" y="0px" viewBox="0 0 100 100"><g transform="translate(0,-952.36218)"><path style="text-indent:0;text-transform:none;direction:ltr;block-progression:tb;baseline-shift:baseline;color:#000000;enable-background:accumulate;" d="m 38,965.36215 c -1.1892,0.0257 -2.2474,0.80829 -2.6875,1.65625 l -4.1875,8.34375 -15.125,0 c -5.4881,0 -10.0000001,4.51189 -10.0000001,10 l 0,44.00005 c 0,5.4881 4.5119001,10 10.0000001,10 l 68,0 c 5.4881,0 10,-4.5119 10,-10 l 0,-44.00005 c 0,-5.48811 -4.5119,-10 -10,-10 l -15.125,0 -4.1875,-8.34375 C 64.1911,966.0277 63.1081,965.36027 62,965.36215 l -24,0 z m 1.875,6 20.25,0 4.1875,8.34375 c 0.4964,0.9907 1.5794,1.65813 2.6875,1.65625 l 17,0 c 2.2679,0 4,1.73209 4,4 l 0,44.00005 c 0,2.2679 -1.7321,4 -4,4 l -68,0 c -2.2679,0 -4,-1.7321 -4,-4 l 0,-44.00005 c 0,-2.26791 1.7321,-4 4,-4 l 17,0 c 1.1081,0.002 2.1911,-0.66555 2.6875,-1.65625 l 4.1875,-8.34375 z m 10.125,15 c -11.5623,0 -21,9.43757 -21,20.99995 0,11.5625 9.4376,21.0001 21,21.0001 11.5625,0 21,-9.4376 21,-21.0001 0,-11.56238 -9.4375,-20.99995 -21,-20.99995 z m 0,5.99997 c 8.3199,0 15,6.6803 15,14.99998 0,8.3199 -6.6801,15.0001 -15,15.0001 -8.3196,0 -15,-6.6803 -15,-15.0001 0,-8.31968 6.6803,-14.99998 15,-14.99998 z" fill="#FFFFFF" fill-opacity="1" stroke="none" marker="none" visibility="visible" display="inline" overflow="visible"></path></g></svg>