<svg id="Capa_1" enable-background="new 0 0 512 512" height="512" viewBox="0 0 512 512" width="512" xmlns="http://www.w3.org/2000/svg"><g><path d="m430.002 226.881c0-23.443 14.96-48.974 8.091-70.127-7.118-21.924-34.467-33.733-47.747-51.981-13.413-18.431-16.286-48.04-34.717-61.454-18.248-13.281-47.23-6.95-69.154-14.069-21.153-6.867-40.773-29.25-64.216-29.25s-43.063 22.383-64.216 29.252c-21.923 7.118-50.905.788-69.153 14.068-18.431 13.413-21.303 43.023-34.717 61.454-13.281 18.248-40.629 30.057-47.747 51.981-6.868 21.153 8.091 46.684 8.091 70.127s-14.959 48.974-8.091 70.127c7.118 21.924 34.467 33.733 47.747 51.981 13.413 18.431 16.286 48.04 34.717 61.454 18.248 13.281 47.23 6.95 69.153 14.069 21.153 6.868 40.773 29.252 64.216 29.252s43.063-22.383 64.216-29.252c21.924-7.118 50.905-.788 69.154-14.069 18.431-13.413 21.303-43.023 34.717-61.454 13.281-18.248 40.629-30.057 47.747-51.981 6.868-21.154-8.091-46.685-8.091-70.128z" fill="#80b4fb"/><path d="m24.376 154.13c-7.121 21.942 8.391 48.425 8.391 72.751s-15.512 50.809-8.391 72.751c7.39 22.747 35.762 34.998 49.54 53.936 13.912 19.124 16.895 49.839 36.02 63.751.671.485 1.362.949 2.064 1.383-8.546-1.228-16.524-3.468-23.108-8.257-18.433-13.417-21.302-43.027-34.719-61.46-13.283-18.247-40.633-30.054-47.744-51.975-6.874-21.158 8.091-46.691 8.091-70.13s-14.965-48.972-8.091-70.13c7.121-21.921 34.461-33.728 47.744-51.975 13.417-18.433 16.286-48.043 34.719-61.46 6.585-4.789 14.563-7.029 23.108-8.257-.702.434-1.393.898-2.064 1.383-19.124 13.912-22.107 44.627-36.02 63.751-13.778 18.941-42.15 31.192-49.54 53.938z" fill="#61a2f9"/><circle cx="222.259" cy="226.881" fill="#ededed" r="161.737"/><path d="m239.929 387.658c-5.8.64-11.694.96-17.669.96-89.326 0-161.737-72.411-161.737-161.737s72.411-161.737 161.737-161.737c5.976 0 11.869.32 17.669.96-81.008 8.804-144.057 77.426-144.057 160.777-.001 83.351 63.049 151.974 144.057 160.777z" fill="#dbdbdb"/><g fill="#95d6a4"><path d="m208.534 190.659c-.027-.072-.055-.144-.085-.215-1.44-3.494-4.81-5.751-8.589-5.751-.004 0-.008 0-.011 0-3.783.005-7.153 2.269-8.587 5.77-.023.059-.047.118-.069.177l-25.881 67.954c-1.519 3.988.483 8.452 4.471 9.97 3.983 1.519 8.451-.482 9.97-4.47l4.551-11.948h30.919l4.501 11.926c1.167 3.094 4.108 5.001 7.229 5.001.906 0 1.829-.16 2.727-.5 3.992-1.507 6.007-5.965 4.5-9.957zm-18.345 46.034 9.645-25.323 9.557 25.323z"/><path d="m276.929 253.559c-.015 0-.029 0-.044 0-5.677.032-11.777.054-16.366.058v-61.198c0-4.267-3.459-7.726-7.726-7.726s-7.726 3.459-7.726 7.726v68.867c0 3.763 2.711 6.979 6.421 7.615.558.096 1.012.174 8.549.174 3.679 0 9.046-.018 16.936-.062 4.267-.024 7.707-3.503 7.683-7.77-.026-4.253-3.48-7.684-7.727-7.684z"/><path d="m332.273 253.618h-21.05v-18.695h18.929c4.268 0 7.726-3.459 7.726-7.726s-3.459-7.726-7.726-7.726h-18.929v-18.695h21.05c4.268 0 7.726-3.459 7.726-7.726s-3.459-7.726-7.726-7.726h-28.777c-4.268 0-7.726 3.459-7.726 7.726v68.296c0 4.267 3.459 7.726 7.726 7.726h28.777c4.268 0 7.726-3.459 7.726-7.726 0-4.269-3.459-7.728-7.726-7.728z"/><path d="m144.924 220.176c-8.607-3.175-16.609-6.635-18.915-7.646-1.634-1.27-2.419-3.246-2.112-5.383.199-1.385 1.192-4.767 6.107-6.247 10.188-3.066 19.535 4.347 19.787 4.549 3.266 2.712 8.114 2.284 10.851-.972 2.745-3.267 2.324-8.14-.943-10.886-.636-.535-15.777-13.023-34.152-7.487-9.181 2.766-15.674 9.987-16.946 18.848-1.19 8.292 2.403 16.268 9.378 20.814.341.223.699.418 1.071.583.397.178 9.863 4.391 20.525 8.324 3.232 1.192 10.638 4.59 9.605 10.374-.753 4.213-5.789 8.57-12.915 8.57-7.098 0-13.937-2.871-18.294-7.68-2.866-3.162-7.754-3.4-10.913-.537-3.162 2.866-3.402 7.752-.537 10.914 7.238 7.987 18.358 12.755 29.744 12.755 14.094 0 25.924-8.961 28.128-21.306 1.651-9.255-2.595-21.363-19.469-27.587z"/></g><circle cx="400.69" cy="405.312" fill="#ffd064" r="106.688"/><path d="m419.396 510.351c-6.065 1.08-12.318 1.645-18.71 1.645-58.917 0-106.683-47.766-106.683-106.684 0-58.929 47.766-106.695 106.683-106.695 6.391 0 12.645.565 18.71 1.645-50.014 8.827-87.998 52.5-87.998 105.05-.001 52.539 37.984 96.211 87.998 105.039z" fill="#ffc250"/><g fill="#db5c6e"><path d="m376.512 471.292c-.997 0-2.01-.194-2.987-.604-3.935-1.651-5.786-6.18-4.135-10.114l49.966-119.059c1.651-3.935 6.182-5.784 10.115-4.134 3.935 1.651 5.786 6.18 4.135 10.114l-49.966 119.059c-1.242 2.958-4.11 4.738-7.128 4.738z"/><path d="m366.95 397.993c-16.435 0-29.805-14.975-29.805-33.382s13.37-33.382 29.805-33.382c16.434 0 29.804 14.975 29.804 33.382s-13.371 33.382-29.804 33.382zm0-51.311c-7.913 0-14.352 8.043-14.352 17.929s6.439 17.929 14.352 17.929 14.351-8.043 14.351-17.929-6.438-17.929-14.351-17.929z"/><path d="m434.432 479.396c-16.435 0-29.805-14.975-29.805-33.382s13.37-33.382 29.805-33.382c16.434 0 29.804 14.975 29.804 33.382-.001 18.407-13.371 33.382-29.804 33.382zm0-51.311c-7.913 0-14.352 8.043-14.352 17.93 0 9.886 6.439 17.929 14.352 17.929s14.351-8.043 14.351-17.929c0-9.887-6.438-17.93-14.351-17.93z"/></g></g></svg>