<svg id="Capa_1" enable-background="new 0 0 512 512" height="512" viewBox="0 0 512 512" width="512" xmlns="http://www.w3.org/2000/svg"><g><path d="m482.918 42.516v436.734h-453.836v-436.734c0-23.478 19.038-42.516 42.516-42.516h368.805c23.477 0 42.515 19.038 42.515 42.516z" fill="#ededed"/><g><path d="m288.72 295.292h-35.273c-7.593 0-13.749 6.156-13.749 13.749v45.357c0 7.593 6.156 13.749 13.749 13.749l17.637 9.323 17.637-9.323c7.593 0 13.749-6.156 13.749-13.749v-45.357c-.001-7.594-6.157-13.749-13.75-13.749z" fill="#db5c6e"/><path d="m277 368.151h-23.56c-7.592 0-13.743-6.15-13.743-13.753v-45.349c0-7.593 6.15-13.753 13.743-13.753h23.56c-7.603 0-13.753 6.16-13.753 13.753v45.349c0 7.603 6.151 13.753 13.753 13.753z" fill="#d64553"/><path d="m293.954 267.344h-45.74c-4.703 0-8.516 3.813-8.516 8.516v10.916c0 4.703 3.813 8.516 8.516 8.516h45.74c4.703 0 8.516-3.813 8.516-8.516v-10.916c-.001-4.703-3.813-8.516-8.516-8.516z" fill="#407093"/><path d="m268.687 295.295h-20.47c-4.708 0-8.52-3.812-8.52-8.519v-10.91c0-4.708 3.812-8.52 8.52-8.52h20.47c-4.698 0-8.509 3.812-8.509 8.52v10.91c-.001 4.708 3.811 8.519 8.509 8.519z" fill="#365e7d"/></g><path d="m91.016 0c-23.477 0-42.515 19.038-42.515 42.516v436.734h-19.419v-436.734c0-23.478 19.038-42.516 42.516-42.516z" fill="#dbdbdb"/><g><path d="m116.159 295.292h-35.273c-7.593 0-13.749 6.156-13.749 13.749v45.357c0 7.593 6.156 13.749 13.749 13.749l17.637 8.016 17.637-8.016c7.593 0 13.749-6.156 13.749-13.749v-45.357c0-7.594-6.156-13.749-13.75-13.749z" fill="#80b4fb"/><path d="m104.44 368.151h-23.56c-7.592 0-13.743-6.15-13.743-13.753v-45.349c0-7.593 6.15-13.753 13.743-13.753h23.56c-7.603 0-13.753 6.16-13.753 13.753v45.349c0 7.603 6.15 13.753 13.753 13.753z" fill="#61a2f9"/><path d="m121.393 267.344h-45.74c-4.703 0-8.516 3.813-8.516 8.516v10.916c0 4.703 3.813 8.516 8.516 8.516h45.74c4.703 0 8.516-3.813 8.516-8.516v-10.916c0-4.703-3.813-8.516-8.516-8.516z" fill="#db5c6e"/><path d="m96.126 295.295h-20.47c-4.708 0-8.52-3.812-8.52-8.519v-10.91c0-4.708 3.812-8.52 8.52-8.52h20.47c-4.698 0-8.509 3.812-8.509 8.52v10.91c0 4.708 3.812 8.519 8.509 8.519z" fill="#d64553"/></g><g><path d="m386.848 295.292h-35.273c-7.593 0-13.749 6.156-13.749 13.749v45.357c0 7.593 6.156 13.749 13.749 13.749h35.273c7.593 0 13.749-6.156 13.749-13.749v-45.357c0-7.594-6.156-13.749-13.749-13.749z" fill="#80b4fb"/><path d="m375.128 368.151h-23.56c-7.592 0-13.743-6.15-13.743-13.753v-45.349c0-7.593 6.15-13.753 13.743-13.753h23.56c-7.603 0-13.753 6.16-13.753 13.753v45.349c0 7.603 6.15 13.753 13.753 13.753z" fill="#61a2f9"/><path d="m392.081 267.344h-45.74c-4.703 0-8.516 3.813-8.516 8.516v10.916c0 4.703 3.813 8.516 8.516 8.516h45.74c4.703 0 8.516-3.813 8.516-8.516v-10.916c0-4.703-3.813-8.516-8.516-8.516z" fill="#db5c6e"/><path d="m366.814 295.295h-20.47c-4.708 0-8.52-3.812-8.52-8.519v-10.91c0-4.708 3.812-8.52 8.52-8.52h20.47c-4.698 0-8.509 3.812-8.509 8.52v10.91c0 4.708 3.812 8.519 8.509 8.519z" fill="#d64553"/></g><g><path d="m178.931 295.292h-35.273c-7.593 0-13.749 6.156-13.749 13.749v45.357c0 7.593 6.156 13.749 13.749 13.749l19.906 5.402 15.367-5.402c7.593 0 13.749-6.156 13.749-13.749v-45.357c0-7.594-6.156-13.749-13.749-13.749z" fill="#80b4fb"/><path d="m167.211 368.151h-23.56c-7.592 0-13.743-6.15-13.743-13.753v-45.349c0-7.593 6.15-13.753 13.743-13.753h23.56c-7.603 0-13.753 6.16-13.753 13.753v45.349c0 7.603 6.151 13.753 13.753 13.753z" fill="#61a2f9"/><path d="m184.165 267.344h-45.74c-4.703 0-8.516 3.813-8.516 8.516v10.916c0 4.703 3.813 8.516 8.516 8.516h45.74c4.703 0 8.516-3.813 8.516-8.516v-10.916c-.001-4.703-3.813-8.516-8.516-8.516z" fill="#db5c6e"/><path d="m158.898 295.295h-20.47c-4.708 0-8.52-3.812-8.52-8.519v-10.91c0-4.708 3.812-8.52 8.52-8.52h20.47c-4.698 0-8.509 3.812-8.509 8.52v10.91c0 4.708 3.811 8.519 8.509 8.519z" fill="#d64553"/></g><g><path d="m288.72 396.095h-35.273c-7.593 0-13.749 6.156-13.749 13.749v45.357c0 7.593 6.156 13.749 13.749 13.749l17.637 7.852 17.637-7.852c7.593 0 13.749-6.156 13.749-13.749v-45.357c-.001-7.594-6.157-13.749-13.75-13.749z" fill="#db5c6e"/><path d="m277 468.954h-23.56c-7.592 0-13.743-6.15-13.743-13.753v-45.349c0-7.593 6.15-13.753 13.743-13.753h23.56c-7.603 0-13.753 6.16-13.753 13.753v45.349c0 7.603 6.151 13.753 13.753 13.753z" fill="#d64553"/><path d="m293.954 368.147h-45.74c-4.703 0-8.516 3.813-8.516 8.516v10.916c0 4.703 3.813 8.516 8.516 8.516h45.74c4.703 0 8.516-3.813 8.516-8.516v-10.916c-.001-4.703-3.813-8.516-8.516-8.516z" fill="#407093"/><path d="m268.687 396.098h-20.47c-4.708 0-8.52-3.812-8.52-8.519v-10.91c0-4.708 3.812-8.52 8.52-8.52h20.47c-4.698 0-8.509 3.812-8.509 8.52v10.91c-.001 4.708 3.811 8.519 8.509 8.519z" fill="#365e7d"/></g><g><path d="m116.159 396.095h-35.273c-7.593 0-13.749 6.156-13.749 13.749v45.357c0 7.593 6.156 13.749 13.749 13.749l17.637 10.3 17.637-10.3c7.593 0 13.749-6.156 13.749-13.749v-45.357c0-7.594-6.156-13.749-13.75-13.749z" fill="#80b4fb"/><path d="m104.44 468.954h-23.56c-7.592 0-13.743-6.15-13.743-13.753v-45.349c0-7.593 6.15-13.753 13.743-13.753h23.56c-7.603 0-13.753 6.16-13.753 13.753v45.349c0 7.603 6.15 13.753 13.753 13.753z" fill="#61a2f9"/><path d="m121.393 368.147h-45.74c-4.703 0-8.516 3.813-8.516 8.516v10.916c0 4.703 3.813 8.516 8.516 8.516h45.74c4.703 0 8.516-3.813 8.516-8.516v-10.916c0-4.703-3.813-8.516-8.516-8.516z" fill="#db5c6e"/><path d="m96.126 396.098h-20.47c-4.708 0-8.52-3.812-8.52-8.519v-10.91c0-4.708 3.812-8.52 8.52-8.52h20.47c-4.698 0-8.509 3.812-8.509 8.52v10.91c0 4.708 3.812 8.519 8.509 8.519z" fill="#d64553"/></g><g><path d="m178.931 396.095h-35.273c-7.593 0-13.749 6.156-13.749 13.749v45.357c0 7.593 6.156 13.749 13.749 13.749l17.637 5.917 17.637-5.917c7.593 0 13.749-6.156 13.749-13.749v-45.357c-.001-7.594-6.157-13.749-13.75-13.749z" fill="#80b4fb"/><path d="m167.211 468.954h-23.56c-7.592 0-13.743-6.15-13.743-13.753v-45.349c0-7.593 6.15-13.753 13.743-13.753h23.56c-7.603 0-13.753 6.16-13.753 13.753v45.349c0 7.603 6.151 13.753 13.753 13.753z" fill="#61a2f9"/><path d="m184.165 368.147h-45.74c-4.703 0-8.516 3.813-8.516 8.516v10.916c0 4.703 3.813 8.516 8.516 8.516h45.74c4.703 0 8.516-3.813 8.516-8.516v-10.916c-.001-4.703-3.813-8.516-8.516-8.516z" fill="#db5c6e"/><path d="m158.898 396.098h-20.47c-4.708 0-8.52-3.812-8.52-8.519v-10.91c0-4.708 3.812-8.52 8.52-8.52h20.47c-4.698 0-8.509 3.812-8.509 8.52v10.91c0 4.708 3.811 8.519 8.509 8.519z" fill="#d64553"/></g><g><path d="m351.492 396.095h-35.273c-7.593 0-13.749 6.156-13.749 13.749v45.357c0 7.593 6.156 13.749 13.749 13.749l20.198 7.852 15.075-7.852c7.593 0 13.749-6.156 13.749-13.749v-45.357c0-7.594-6.156-13.749-13.749-13.749z" fill="#db5c6e"/><path d="m339.772 468.954h-23.56c-7.592 0-13.743-6.15-13.743-13.753v-45.349c0-7.593 6.15-13.753 13.743-13.753h23.56c-7.603 0-13.753 6.16-13.753 13.753v45.349c0 7.603 6.15 13.753 13.753 13.753z" fill="#d64553"/><path d="m356.725 368.147h-45.74c-4.703 0-8.516 3.813-8.516 8.516v10.916c0 4.703 3.813 8.516 8.516 8.516h45.74c4.703 0 8.516-3.813 8.516-8.516v-10.916c0-4.703-3.813-8.516-8.516-8.516z" fill="#407093"/><path d="m331.458 396.098h-20.47c-4.708 0-8.52-3.812-8.52-8.519v-10.91c0-4.708 3.812-8.52 8.52-8.52h20.47c-4.698 0-8.509 3.812-8.509 8.52v10.91c0 4.708 3.812 8.519 8.509 8.519z" fill="#365e7d"/></g><g><path d="m414.263 396.095h-35.273c-7.593 0-13.749 6.156-13.749 13.749v45.357c0 7.593 6.156 13.749 13.749 13.749l21.607 7.852 13.667-7.852c7.593 0 13.749-6.156 13.749-13.749v-45.357c-.001-7.594-6.156-13.749-13.75-13.749z" fill="#db5c6e"/><path d="m402.544 468.954h-23.56c-7.592 0-13.743-6.15-13.743-13.753v-45.349c0-7.593 6.15-13.753 13.743-13.753h23.56c-7.603 0-13.753 6.16-13.753 13.753v45.349c0 7.603 6.15 13.753 13.753 13.753z" fill="#d64553"/><path d="m419.497 368.147h-45.74c-4.703 0-8.516 3.813-8.516 8.516v10.916c0 4.703 3.813 8.516 8.516 8.516h45.74c4.703 0 8.516-3.813 8.516-8.516v-10.916c-.001-4.703-3.813-8.516-8.516-8.516z" fill="#407093"/><path d="m394.23 396.098h-20.47c-4.708 0-8.52-3.812-8.52-8.519v-10.91c0-4.708 3.812-8.52 8.52-8.52h20.47c-4.698 0-8.509 3.812-8.509 8.52v10.91c0 4.708 3.811 8.519 8.509 8.519z" fill="#365e7d"/></g><g><path d="m490.475 468.95h-468.95c-11.888 0-21.525 9.637-21.525 21.525 0 11.888 9.637 21.525 21.525 21.525h468.95c11.888 0 21.525-9.637 21.525-21.525 0-11.888-9.637-21.525-21.525-21.525z" fill="#dbdbdb"/><path d="m51.911 505.691c3.904 3.894 9.282 6.305 15.226 6.305h-45.617c-5.944 0-11.322-2.411-15.216-6.305-3.893-3.894-6.304-9.272-6.304-15.216 0-11.888 9.632-21.531 21.52-21.531h45.616c-11.888 0-21.531 9.642-21.531 21.531.001 5.944 2.412 11.322 6.306 15.216z" fill="#cbcac8"/></g><g><g><path d="m159.756 198.416c4.236-44.284 4.755-88.567 1.558-132.85-.786-10.887-9.352-19.598-20.223-20.583-31.445-2.85-62.891-2.85-94.336 0-10.871.985-19.437 9.696-20.223 20.583-3.198 44.283-2.679 88.566 1.558 132.85" fill="#ffd064"/><path d="m52.925 198.418h-24.838c-4.234-44.277-4.759-88.565-1.556-132.852.783-10.879 9.354-19.594 20.222-20.583 3.976-.36 7.953-.67 11.93-.948-3.678 3.946-6.181 10.497-6.511 18.018-2.039 45.451-1.792 90.913.753 136.365z" fill="#ffc250"/><ellipse cx="93.923" cy="130.932" fill="#db5c6e" rx="40.07" ry="29.837"/></g><g><path d="m321.835 198.416c4.236-44.284 4.755-88.567 1.558-132.85-.786-10.887-9.352-19.598-20.223-20.583-31.445-2.85-62.891-2.85-94.336 0-10.871.985-19.437 9.696-20.223 20.583-3.198 44.283-2.679 88.566 1.558 132.85" fill="#ffd064"/><path d="m215.004 198.418h-24.838c-4.234-44.277-4.759-88.565-1.556-132.852.783-10.879 9.354-19.594 20.222-20.583 3.976-.36 7.953-.67 11.93-.948-3.678 3.946-6.181 10.497-6.511 18.018-2.039 45.451-1.792 90.913.753 136.365z" fill="#ffc250"/><ellipse cx="256.001" cy="130.932" fill="#db5c6e" rx="40.07" ry="29.837"/></g><g><path d="m483.913 198.416c4.236-44.284 4.755-88.567 1.558-132.85-.786-10.887-9.352-19.598-20.223-20.583-31.445-2.85-62.891-2.85-94.336 0-10.871.985-19.437 9.696-20.223 20.583-3.198 44.283-2.679 88.566 1.558 132.85" fill="#ffd064"/><path d="m377.082 198.418h-24.838c-4.234-44.277-4.759-88.565-1.556-132.852.783-10.879 9.354-19.594 20.222-20.583 3.976-.36 7.953-.67 11.93-.948-3.678 3.946-6.181 10.497-6.511 18.018-2.039 45.451-1.791 90.913.753 136.365z" fill="#ffc250"/><ellipse cx="418.08" cy="130.932" fill="#db5c6e" rx="40.07" ry="29.837"/></g></g><path d="m29.082 212.949h453.836v43.051h-453.836z" fill="#dbdbdb"/><path d="m490.475 198.422h-468.95c-11.888 0-21.525 9.637-21.525 21.525 0 11.888 9.637 21.525 21.525 21.525h468.95c11.888 0 21.525-9.637 21.525-21.525 0-11.888-9.637-21.525-21.525-21.525z" fill="#dbdbdb"/><path d="m51.911 235.162c3.904 3.894 9.282 6.305 15.226 6.305h-45.617c-5.944 0-11.322-2.411-15.216-6.305-3.893-3.894-6.304-9.271-6.304-15.215 0-11.888 9.632-21.531 21.52-21.531h45.616c-11.888 0-21.531 9.642-21.531 21.531.001 5.944 2.412 11.321 6.306 15.215z" fill="#cbcac8"/></g></svg>