<svg xmlns="http://www.w3.org/2000/svg" viewBox="0 0 32 40" x="0px" y="0px"><title>line, basic, uiFilter</title><g><path d="M6,13H16.14a4,4,0,0,0,7.72,0H26a1,1,0,0,0,0-2H23.86a4,4,0,0,0-7.72,0H6a1,1,0,0,0,0,2Zm14-3a2,2,0,1,1-2,2A2,2,0,0,1,20,10Zm6,10H15.86a4,4,0,0,0-7.72,0H6a1,1,0,0,0,0,2H8.14a4,4,0,0,0,7.72,0H26a1,1,0,0,0,0-2ZM12,23a2,2,0,1,1,2-2A2,2,0,0,1,12,23Z"/></g><text x="0" y="47" fill="#000000" font-size="5px" font-weight="bold" font-family="'Helvetica Neue', Helvetica, Arial-Unicode, Arial, Sans-serif">Created by Faruza Arkan</text><text x="0" y="52" fill="#000000" font-size="5px" font-weight="bold" font-family="'Helvetica Neue', Helvetica, Arial-Unicode, Arial, Sans-serif">from the Noun Project</text></svg>