<svg id="Capa_1" enable-background="new 0 0 512 512" height="512" viewBox="0 0 512 512" width="512" xmlns="http://www.w3.org/2000/svg"><g><path d="m180.157 149.291s-3.169-81.143-30.224-108.198 14.963-51.668 30.224-36.406 45.709 78.251 30.485 144.604" fill="#986b54"/><path d="m212.57 139.45c-.536 3.267-1.185 6.555-1.937 9.842h-30.484s-3.164-81.147-30.216-108.199c-17.19-17.19-6.503-33.401 7.492-39.017-5.339 7.667-5.709 18.22 5.256 29.186 27.052 27.052 30.216 108.189 30.216 108.189h19.673z" fill="#845c47"/><path d="m209.572 422.71c14.503 3.609 28.88 5.482 39.399 6.449 10.744.988 21.53-1.154 31.098-6.14 1.601-.834 3.181-1.677 4.74-2.529 103.683-56.619 137.427-190.206 71.127-287.983-8.061-11.889-16.265-21.539-23.605-29.113-14.898-15.373-37.47-20.487-57.63-13.285-18.782 6.71-35.952 15.612-49.208 23.413-16.6 9.769-37.147 9.769-53.746 0-13.256-7.802-30.426-16.704-49.208-23.413-20.16-7.202-42.732-2.088-57.63 13.285-7.339 7.574-15.543 17.224-23.605 29.113-66.299 97.776-32.555 231.363 71.127 287.983 1.559.851 3.139 1.694 4.74 2.529 9.568 4.985 20.354 7.128 31.098 6.14 10.519-.967 24.896-2.84 39.399-6.449 7.194-1.791 14.71-1.791 21.904 0z" fill="#95d6a4"/><path d="m157.201 428.208c-3.195.381-6.194.701-8.935.948-10.749.989-21.529-1.154-31.103-6.132-1.597-.835-3.174-1.68-4.74-2.535-103.675-56.619-137.426-190.201-71.119-287.982 8.059-11.882 16.262-21.539 23.6-29.114 14.902-15.376 37.471-20.488 57.629-13.284 1.309.464 2.597.938 3.885 1.432-3.885 2.772-7.472 6.75-10.533 11.852-4.545 7.575-9.615 17.221-14.603 29.114-41.027 97.78-20.148 231.362 44.005 287.981.969.855 1.938 1.701 2.937 2.535 2.845 2.392 5.875 4.134 8.977 5.185z" fill="#78c2a4"/><path d="m483.271 84.563c44.03 112.33 20.64 244.975-70.126 335.741-89.94 89.94-220.976 113.722-332.655 71.322l-3.478-65.626c78.832-22.314 153.208-64.496 215.27-126.558 62.638-62.638 105.038-137.84 127.178-217.499l30.581-17.131z" fill="#ffd064"/><path d="m450.041 83.208c-9.605 79.807-41.8 155.667-93.874 217.79-9.368 11.171-19.302 22.023-29.804 32.525-62.061 62.071-136.437 104.252-215.275 126.564l-32.02 4.834-2.061-38.914c78.838-22.312 153.214-64.493 215.275-126.564 62.638-62.638 105.035-137.838 127.172-217.491z" fill="#ffc250"/><path d="m483.271 84.563-18.891-67.062c-1.726-6.126-7.002-10.587-13.33-11.271l-14.297-1.544c-9.214-.995-17.256 6.221-17.261 15.489l-.033 61.767" fill="#95d6a4"/><path d="m450.78 6.201c-5.122 2.525-8.698 7.791-8.708 13.975l-.031 62.7-22.58-.928.031-61.772c.01-9.265 8.049-16.479 17.262-15.489z" fill="#78c2a4"/><path d="m141.857 460.498c-3.431 0-6.565-2.302-7.473-5.776-1.08-4.13 1.393-8.353 5.523-9.433 68.611-17.936 132.872-55.411 185.834-108.372 63.641-63.641 105.085-144.383 116.697-227.352.591-4.228 4.502-7.175 8.726-6.583 4.228.592 7.176 4.499 6.584 8.726-12.075 86.275-55.073 170.138-121.074 236.14-54.903 54.901-121.591 93.767-192.857 112.398-.656.17-1.313.252-1.96.252z" fill="#e49542"/><path d="m80.49 491.626-30.597-31.54 27.119-34.086 34.076 34.086z" fill="#407093"/></g></svg>