<?xml version="1.0" encoding="iso-8859-1"?>
<!-- Generator: Adobe Illustrator 19.0.0, SVG Export Plug-In . SVG Version: 6.00 Build 0)  -->
<svg version="1.1" id="Capa_1" xmlns="http://www.w3.org/2000/svg" xmlns:xlink="http://www.w3.org/1999/xlink" x="0px" y="0px"
	 viewBox="0 0 512 512" style="enable-background:new 0 0 512 512;" xml:space="preserve">
<g>
	<g>
		<path d="M496,144.003h-86.112L350.304,24.835c-3.968-7.904-13.568-11.072-21.472-7.168c-7.904,3.968-11.104,13.568-7.168,21.472
			l52.448,104.864H137.888l52.416-104.832c3.968-7.904,0.736-17.504-7.168-21.472c-7.904-3.904-17.472-0.768-21.44,7.136
			l-59.584,119.168H16c-8.832,0-16,7.168-16,16v64c0,8.832,7.168,16,16,16h480c8.832,0,16-7.168,16-16v-64
			C512,151.171,504.832,144.003,496,144.003z"/>
	</g>
</g>
<g>
	<g>
		<path d="M43.52,272.003l52.96,211.872c1.792,7.136,8.192,12.128,15.52,12.128h288c7.328,0,13.76-4.992,15.52-12.128
			l52.992-211.872H43.52z M192,416.003c0,8.832-7.168,16-16,16c-8.832,0-16-7.168-16-16v-96c0-8.832,7.168-16,16-16
			c8.832,0,16,7.168,16,16V416.003z M272,416.003c0,8.832-7.168,16-16,16c-8.832,0-16-7.168-16-16v-96c0-8.832,7.168-16,16-16
			c8.832,0,16,7.168,16,16V416.003z M352,416.003c0,8.832-7.168,16-16,16c-8.832,0-16-7.168-16-16v-96c0-8.832,7.168-16,16-16
			c8.832,0,16,7.168,16,16V416.003z"/>
	</g>
</g>
<g>
</g>
<g>
</g>
<g>
</g>
<g>
</g>
<g>
</g>
<g>
</g>
<g>
</g>
<g>
</g>
<g>
</g>
<g>
</g>
<g>
</g>
<g>
</g>
<g>
</g>
<g>
</g>
<g>
</g>
</svg>
