<svg height='300px' width='300px'  fill="#ffffff" xmlns="http://www.w3.org/2000/svg" xmlns:xlink="http://www.w3.org/1999/xlink" viewBox="0 0 60 58" version="1.1" x="0px" y="0px"><title>home</title><desc>Created with Sketch.</desc><g stroke="none" stroke-width="1" fill="none" fill-rule="evenodd"><g transform="translate(-10.000000, -11.000000)" fill="#ffffff"><g transform="translate(10.000000, 11.000000)"><path d="M30,0 C29.3222727,0 28.6431818,0.263181818 28.125,0.789545455 L2.01409091,27.3668182 C0.724090909,28.68 0,30.4595455 0,32.3154545 L0,52.9704545 C0,55.2927273 1.85045455,57.1759091 4.13181818,57.1759091 L20.4136364,57.1759091 C22.695,57.1759091 24.5454545,55.2927273 24.5454545,52.9704545 L24.5454545,40.5204545 C24.5454545,37.4536364 26.9877273,34.9690909 30,34.9690909 L30,34.9690909 C33.0122727,34.9690909 35.4545455,37.4536364 35.4545455,40.5204545 L35.4545455,52.9704545 C35.4545455,55.2927273 37.305,57.1759091 39.5863636,57.1759091 L55.8681818,57.1759091 C58.1509091,57.1759091 60,55.2927273 60,52.9704545 L60,32.3154545 C60,30.4595455 59.2759091,28.68 57.9859091,27.3668182 L31.875,0.789545455 C31.3568182,0.263181818 30.6790909,0 30,0"></path></g></g></g></svg>