<svg height='300px' width='300px'  fill="#FFFFFF" xmlns="http://www.w3.org/2000/svg" data-name="Layer 1" viewBox="0 0 512 512" x="0px" y="0px"><title>like</title><g><path d="M256,496.87l-46-46C144.51,392.93,95.4,348.55,60,305.51,19.07,255.69,0,210.82,0,164.31c0-40.56,15.32-78.22,43.14-106s65.48-43.14,106-43.14c39.1,0,77.75,15.33,106.82,41.73,29.08-26.4,67.72-41.73,106.82-41.73,40.56,0,78.22,15.32,106,43.14S512,123.75,512,164.31c0,46.51-19.07,91.38-60,141.2-35.38,43-84.49,87.42-150,145.36ZM149.18,52.37c-63.82,0-111.94,48.12-111.94,111.94,0,80.11,71.5,147.26,197.87,259l0.83,0.78L256,444.21l20.47-20.47,0.43-.38c126.37-111.79,197.87-178.94,197.87-259,0-63.82-48.12-111.94-111.94-111.94-34.55,0-70,16.58-92.61,43.26L256,112.43l-14.21-16.8C219.21,68.95,183.72,52.37,149.18,52.37Z"></path></g></svg>