<svg height='300px' width='300px'  fill="#ee4953" xmlns="http://www.w3.org/2000/svg" data-name="Layer 1" viewBox="0 0 512 512" x="0px" y="0px"><title>like</title><path d="M255.76,75.49C262.63,68,269.1,61,275.61,54c31-33.38,70-44.47,114.15-40.2C450,19.6,485,56.2,502.94,110.82c15.53,47.35,10.22,94.24-9.21,139.73-17.81,41.69-44.45,77.45-74.88,110.58C370.63,413.63,315.12,457.59,257,498.49a13.69,13.69,0,0,1-1.72.76c-14.79-10.91-30-21.85-44.94-33.21-47.24-36-92-74.66-130.68-119.93C51.06,312.61,26.26,276.6,12.07,234.43-5.87,181.11-5,128.54,22.93,78.55c18-32.23,44.83-55.14,81.75-62.24,51.78-10,98.37.06,134.94,41.31C244.85,63.52,250.19,69.33,255.76,75.49Z"></path></svg>