<svg height='300px' width='300px'  fill="#FFFFFF" xmlns="http://www.w3.org/2000/svg" xmlns:xlink="http://www.w3.org/1999/xlink" version="1.1" x="0px" y="0px" viewBox="0 0 72 72" style="enable-background:new 0 0 72 72;" xml:space="preserve"><title>Untitled-1</title><path d="M38.9,61.3L66.3,13c0.7-1.2,0.3-2.8-1-3.5c-0.4-0.2-0.8-0.3-1.3-0.3H8.5c-1.7,0-3.2,1.4-3.2,3.2c0,0.6,0.1,1.1,0.4,1.6  c0.2,0.3,0.4,0.6,0.7,0.8l21.4,18.1L33,60.3c0.3,1.7,2,2.8,3.7,2.5C37.6,62.7,38.4,62.1,38.9,61.3L38.9,61.3z M30.5,28.2L14,14.3  h40.4L30.5,28.2z M33.1,32.7l24-14L37.1,53.9L33.1,32.7z"></path></svg>