<svg id="Capa_1" enable-background="new 0 0 512 512" height="512" viewBox="0 0 512 512" width="512" xmlns="http://www.w3.org/2000/svg"><g><g><g><g><path d="m147.122 35.139 35.097-35.139h136.156l35.097 35.139z" fill="#756e78"/></g></g></g><g><g><g><path d="m182.219 132.343h-35.097v-97.204l35.097-35.139z" fill="#8b818e"/></g></g></g><g><g><g><path d="m353.472 132.343h-35.097v-132.343l35.097 35.139z" fill="#8b818e"/></g></g></g><g><g><g><path d="m414.2 512h-316.4c-18.044 0-32.251-15.394-30.806-33.38l26.701-332.363c.86-10.705 9.798-18.954 20.537-18.954h283.536c10.739 0 19.677 8.249 20.537 18.954l26.701 332.363c1.446 17.986-12.761 33.38-30.806 33.38z" fill="#efe7e4"/></g></g></g><path d="m445.007 478.62-26.701-332.364c-.86-10.705-9.798-18.954-20.537-18.954h-10.969c.292 1.132.504 2.298.601 3.501 6.128 75.708 12.257 151.416 18.385 227.123 5.768 71.261-49.684 132.659-121.162 134.154l-213.584 4.467c5.324 9.194 15.258 15.453 26.76 15.453h316.4c18.045 0 32.251-15.394 30.807-33.38z" fill="#dad0cb"/><g><g><path d="m374.336 424.459c31.435-22.263 41.95-76.056 16.308-127.269-1.537-3.069-5.78-3.455-7.814-.69-3.876 5.267-9.221 11.125-16.496 16.179-10.945 7.605-18.394 7.928-29.566 12.736-14.346 6.174-31.711 18.396-39.469 32.693-16.776 30.916 10.779 72.566 12.875 75.647 9.917 2.227 40.215 7.663 64.162-9.296z" fill="#b3e59f"/><path d="m376.125 386.025c-1.19-4.099-5.476-6.456-9.575-5.264l-4.766 1.384c4.687-9.158 8.606-18.735 11.715-28.687 1.274-4.073-.997-8.406-5.069-9.679-4.073-1.269-8.406.997-9.679 5.07-4.382 14.021-10.504 27.233-18.272 39.468-.949-7.162-2.669-14.221-5.154-21.036-1.462-4.009-5.894-6.075-9.905-4.612-4.009 1.462-6.073 5.897-4.612 9.906 2.515 6.897 4.117 14.086 4.762 21.367.421 4.746.408 9.548.012 14.313-10.525 12.094-22.721 22.59-36.351 31.217-3.606 2.282-4.678 7.055-2.395 10.661 2.304 3.639 7.1 4.649 10.661 2.395 20.893-13.224 38.737-30.657 52.729-50.934l20.637-5.995c4.096-1.189 6.452-5.476 5.262-9.574z" fill="#78c2a4"/></g><g><path d="m270.638 185.722c-37.97-6.486-83.443 24.116-101.525 78.461-1.084 3.257 1.644 6.53 5.037 6.014 6.465-.984 14.387-1.346 23.105.224 13.117 2.362 18.613 7.401 29.911 11.901 14.51 5.779 35.431 9.415 51.026 4.791 33.724-9.998 43.69-58.934 44.387-62.595-5.435-8.587-23.016-33.855-51.941-38.796z" fill="#b3e59f"/><path d="m344.822 220.208c-24.22-5.441-48.969-5.726-73.3-1.269l-18.833-10.353c-3.74-2.055-8.438-.691-10.493 3.048s-.691 8.438 3.048 10.493l4.349 2.391c-9.789 3.161-19.332 7.162-28.568 12-3.781 1.98-5.24 6.649-3.26 10.429 2.002 3.822 6.713 5.206 10.429 3.259 13.014-6.816 26.685-11.829 40.827-14.988-4.392 5.735-8.167 11.943-11.228 18.518-1.802 3.869-.126 8.465 3.743 10.266 3.789 1.764 8.442.171 10.265-3.743 3.099-6.656 7.049-12.872 11.741-18.474 3.064-3.659 6.476-7.051 10.13-10.144 15.987-1.108 32.029.108 47.762 3.644 4.158.936 8.298-1.681 9.232-5.845.936-4.163-1.681-8.297-5.844-9.232z" fill="#78c2a4"/></g><g><path d="m115.554 396.994c14.408 35.724 64.322 58.369 120.071 45.237 3.341-.787 4.696-4.826 2.475-7.444-4.231-4.987-8.697-11.54-11.936-19.784-4.874-12.404-3.469-19.727-5.569-31.706-2.697-15.384-10.582-35.1-22.702-45.948-26.21-23.458-73.095-6.257-76.577-4.93-4.456 9.135-16.737 37.362-5.762 64.575z" fill="#b3e59f"/><path d="m192.72 399.277c-12.632-7.499-24.074-16.504-34.185-26.884 3.331.338 6.678.518 10.029.518 3.878 0 7.762-.227 11.626-.681 4.239-.497 7.271-4.336 6.774-8.574-.498-4.238-4.34-7.276-8.575-6.773-7.292.855-14.655.756-21.887-.297-4.723-.688-9.399-1.811-13.951-3.299-9.335-13.027-16.718-27.319-21.966-42.566-1.388-4.034-5.778-6.179-9.821-4.791-4.034 1.389-6.179 5.786-4.791 9.82 7.991 23.223 21.02 45.116 37.391 63.06l1.071 21.463c.205 4.131 3.62 7.341 7.71 7.341 4.402 0 7.949-3.705 7.722-8.112l-.247-4.957c7.829 6.674 16.243 12.697 25.209 18.02 3.607 2.141 8.387 1.009 10.589-2.7 2.18-3.669.971-8.409-2.698-10.588z" fill="#78c2a4"/></g></g></g></svg>