<svg height='300px' width='300px'  fill="#ffffff" xmlns="http://www.w3.org/2000/svg" data-name="Layer 1" viewBox="0 0 32 32" x="0px" y="0px"><title>icon instagram</title><path d="M21.88,0.45H10.13A9.14,9.14,0,0,0,1,9.58V21.33a9.14,9.14,0,0,0,9.13,9.13H21.88A9.14,9.14,0,0,0,31,21.33V9.58A9.14,9.14,0,0,0,21.88.45ZM29,21.33a7.13,7.13,0,0,1-7.12,7.13H10.13A7.13,7.13,0,0,1,3,21.33V9.58a7.13,7.13,0,0,1,7.13-7.12H21.88A7.13,7.13,0,0,1,29,9.58V21.33Z"></path><polygon points="17 7.45 15 7.45 15 14.45 8 14.45 8 16.45 15 16.45 15 23.45 17 23.45 17 16.45 24 16.45 24 14.45 17 14.45 17 7.45"></polygon></svg>